<svg width="400" height="400" viewBox="0 0 400 400" fill="none" xmlns="http://www.w3.org/2000/svg">
  <rect width="400" height="400" fill="#E5E7EB"/>
  <path d="M184.5 142C184.5 151.113 177.113 158.5 168 158.5C158.887 158.5 151.5 151.113 151.5 142C151.5 132.887 158.887 125.5 168 125.5C177.113 125.5 184.5 132.887 184.5 142Z" fill="#9CA3AF"/>
  <path fill-rule="evenodd" clip-rule="evenodd" d="M114 107C107.373 107 102 112.373 102 119V281C102 287.627 107.373 293 114 293H286C292.627 293 298 287.627 298 281V119C298 112.373 292.627 107 286 107H114ZM286 119H114V208.5L149.5 173L184.5 208L235 157.5L286 208.5V119Z" fill="#9CA3AF"/>
</svg>